<svg width="24" height="24" viewBox="0 0 24 24" fill="none" xmlns="http://www.w3.org/2000/svg">
  <rect x="10" y="14" width="1" height="1" fill="#76F9FF"/>
  <rect x="10" y="13" width="1" height="1" fill="#000000"/>
  <rect x="10" y="12" width="1" height="1" fill="#ffffff"/>
  <rect x="9" y="14" width="1" height="1" fill="#ffffff"/>
  <rect x="9" y="13" width="1" height="1" fill="#ffffff"/>
  <rect x="9" y="12" width="1" height="1" fill="#ffffff"/>
  <rect x="16" y="14" width="1" height="1" fill="#76F9FF"/>
  <rect x="16" y="13" width="1" height="1" fill="#000000"/>
  <rect x="16" y="12" width="1" height="1" fill="#ffffff"/>
  <rect x="15" y="14" width="1" height="1" fill="#ffffff"/>
  <rect x="15" y="13" width="1" height="1" fill="#ffffff"/>
  <rect x="15" y="12" width="1" height="1" fill="#ffffff"/>
  <rect x="10" y="15" width="1" height="1" fill="#76F9FF"/>
  <rect x="16" y="15" width="1" height="1" fill="#76F9FF"/>
  <rect x="10" y="16" width="1" height="1" fill="#76F9FF"/>
  <rect x="16" y="16" width="1" height="1" fill="#76F9FF"/>
  <rect x="10" y="17" width="1" height="1" fill="#76F9FF"/>
  <rect x="16" y="17" width="1" height="1" fill="#76F9FF"/>
  <rect x="10" y="18" width="1" height="1" fill="#76F9FF"/>
  <rect x="16" y="18" width="1" height="1" fill="#76F9FF"/>
  <rect x="10" y="19" width="1" height="1" fill="#76F9FF"/>
  <rect x="16" y="19" width="1" height="1" fill="#76F9FF"/>
</svg>