<svg width="24" height="24" viewBox="0 0 24 24" fill="none" xmlns="http://www.w3.org/2000/svg">
  <rect x="8" y="12" width="1" height="1" fill="#000000"/>
  <rect x="9" y="12" width="1" height="1" fill="#000000"/>
  <rect x="10" y="12" width="1" height="1" fill="#000000"/>
  <rect x="11" y="12" width="1" height="1" fill="#000000"/>
  <rect x="12" y="12" width="1" height="1" fill="#000000"/>
  <rect x="13" y="12" width="1" height="1" fill="#000000"/>
  <rect x="14" y="12" width="1" height="1" fill="#000000"/>
  <rect x="15" y="12" width="1" height="1" fill="#000000"/>
  <rect x="16" y="12" width="1" height="1" fill="#000000"/>
  <rect x="17" y="12" width="1" height="1" fill="#000000"/>
  <rect x="18" y="12" width="1" height="1" fill="#000000"/>
  <rect x="8" y="13" width="1" height="1" fill="#000000"/>
  <rect x="9" y="13" width="1" height="1" fill="#ffffff"/>
  <rect x="10" y="13" width="1" height="1" fill="#000000"/>
  <rect x="11" y="13" width="1" height="1" fill="#000000"/>
  <rect x="12" y="13" width="1" height="1" fill="#000000"/>
  <rect x="14" y="13" width="1" height="1" fill="#000000"/>
  <rect x="15" y="13" width="1" height="1" fill="#ffffff"/>
  <rect x="16" y="13" width="1" height="1" fill="#000000"/>
  <rect x="17" y="13" width="1" height="1" fill="#000000"/>
  <rect x="18" y="13" width="1" height="1" fill="#000000"/>
  <rect x="9" y="14" width="1" height="1" fill="#000000"/>
  <rect x="10" y="14" width="1" height="1" fill="#ffffff"/>
  <rect x="11" y="14" width="1" height="1" fill="#000000"/>
  <rect x="15" y="14" width="1" height="1" fill="#000000"/>
  <rect x="16" y="14" width="1" height="1" fill="#ffffff"/>
  <rect x="17" y="14" width="1" height="1" fill="#000000"/>
</svg>