<svg width="24" height="24" viewBox="0 0 24 24" fill="none" xmlns="http://www.w3.org/2000/svg">
  <rect x="9" y="9" width="1" height="1" fill="#FF4C4C"/>
  <rect x="9" y="8" width="1" height="1" fill="#DC0000"/>
  <rect x="8" y="9" width="1" height="1" fill="#DC0000"/>
  <rect x="8" y="8" width="1" height="1" fill="#DC0000"/>
  <rect x="7" y="9" width="1" height="1" fill="#DC0000"/>
  <rect x="7" y="8" width="1" height="1" fill="#DC0000"/>
  <rect x="6" y="9" width="1" height="1" fill="#DC0000"/>
  <rect x="11" y="9" width="1" height="1" fill="#DC0000"/>
  <rect x="10" y="9" width="1" height="1" fill="#DC0000"/>
  <rect x="11" y="8" width="1" height="1" fill="#DC0000"/>
  <rect x="10" y="8" width="1" height="1" fill="#DC0000"/>
  <rect x="12" y="9" width="1" height="1" fill="#DC0000"/>
  <rect x="12" y="8" width="1" height="1" fill="#DC0000"/>
  <rect x="13" y="9" width="1" height="1" fill="#DC0000"/>
  <rect x="13" y="8" width="1" height="1" fill="#DC0000"/>
  <rect x="14" y="9" width="1" height="1" fill="#DC0000"/>
  <rect x="14" y="8" width="1" height="1" fill="#DC0000"/>
  <rect x="15" y="9" width="1" height="1" fill="#DC0000"/>
  <rect x="15" y="8" width="1" height="1" fill="#DC0000"/>
  <rect x="16" y="8" width="1" height="1" fill="#DC0000"/>
  <rect x="16" y="9" width="1" height="1" fill="#DC0000"/>
  <rect x="17" y="9" width="1" height="1" fill="#DC0000"/>
  <rect x="7" y="10" width="1" height="1" fill="#DC0000"/>
  <rect x="6" y="10" width="1" height="1" fill="#DC0000"/>
  <rect x="9" y="10" width="1" height="1" fill="#DC0000"/>
  <rect x="8" y="10" width="1" height="1" fill="#FF4D4D"/>
  <rect x="11" y="10" width="1" height="1" fill="#DC0000"/>
  <rect x="10" y="10" width="1" height="1" fill="#DC0000"/>
  <rect x="12" y="10" width="1" height="1" fill="#DC0000"/>
  <rect x="13" y="10" width="1" height="1" fill="#DC0000"/>
  <rect x="14" y="10" width="1" height="1" fill="#DC0000"/>
  <rect x="15" y="10" width="1" height="1" fill="#DC0000"/>
  <rect x="16" y="10" width="1" height="1" fill="#DC0000"/>
  <rect x="17" y="10" width="1" height="1" fill="#DC0000"/>
  <rect x="5" y="10" width="1" height="1" fill="#FF4C4C"/>
  <rect x="4" y="9" width="1" height="1" fill="#FF4C4C"/>
  <rect x="4" y="11" width="1" height="1" fill="#FF4C4C"/>
</svg>