<svg width="24" height="24" viewBox="0 0 24 24" fill="none" xmlns="http://www.w3.org/2000/svg">
  <rect x="7" y="7" width="1" height="1" fill="#ffffff"/>
  <rect x="8" y="7" width="1" height="1" fill="#ffffff"/>
  <rect x="8" y="6" width="1" height="1" fill="#ffffff"/>
  <rect x="11" y="7" width="1" height="1" fill="#0059FF"/>
  <rect x="11" y="6" width="1" height="1" fill="#ffffff"/>
  <rect x="10" y="7" width="1" height="1" fill="#0059FF"/>
  <rect x="10" y="6" width="1" height="1" fill="#ffffff"/>
  <rect x="9" y="7" width="1" height="1" fill="#ffffff"/>
  <rect x="9" y="6" width="1" height="1" fill="#ffffff"/>
  <rect x="13" y="7" width="1" height="1" fill="#0059FF"/>
  <rect x="13" y="6" width="1" height="1" fill="#ffffff"/>
  <rect x="12" y="7" width="1" height="1" fill="#0059FF"/>
  <rect x="12" y="6" width="1" height="1" fill="#ffffff"/>
  <rect x="14" y="7" width="1" height="1" fill="#ffffff"/>
  <rect x="14" y="6" width="1" height="1" fill="#ffffff"/>
  <rect x="15" y="7" width="1" height="1" fill="#ffffff"/>
  <rect x="15" y="6" width="1" height="1" fill="#ffffff"/>
  <rect x="16" y="7" width="1" height="1" fill="#ffffff"/>
  <rect x="6" y="8" width="1" height="1" fill="#ffffff"/>
  <rect x="7" y="8" width="1" height="1" fill="#ffffff"/>
  <rect x="8" y="8" width="1" height="1" fill="#ffffff"/>
  <rect x="13" y="8" width="1" height="1" fill="#ffffff"/>
  <rect x="11" y="8" width="1" height="1" fill="#ffffff"/>
  <rect x="10" y="8" width="1" height="1" fill="#ffffff"/>
  <rect x="9" y="8" width="1" height="1" fill="#ffffff"/>
  <rect x="12" y="8" width="1" height="1" fill="#ffffff"/>
  <rect x="14" y="8" width="1" height="1" fill="#ffffff"/>
  <rect x="15" y="8" width="1" height="1" fill="#ffffff"/>
  <rect x="16" y="8" width="1" height="1" fill="#ffffff"/>
  <rect x="17" y="8" width="1" height="1" fill="#ffffff"/>
  <rect x="6" y="9" width="1" height="1" fill="#ffffff"/>
  <rect x="7" y="9" width="1" height="1" fill="#ffffff"/>
  <rect x="8" y="9" width="1" height="1" fill="#ffffff"/>
  <rect x="13" y="9" width="1" height="1" fill="#ffffff"/>
  <rect x="11" y="9" width="1" height="1" fill="#ffffff"/>
  <rect x="10" y="9" width="1" height="1" fill="#ffffff"/>
  <rect x="9" y="9" width="1" height="1" fill="#ffffff"/>
  <rect x="12" y="9" width="1" height="1" fill="#ffffff"/>
  <rect x="14" y="9" width="1" height="1" fill="#ffffff"/>
  <rect x="15" y="9" width="1" height="1" fill="#ffffff"/>
  <rect x="16" y="9" width="1" height="1" fill="#ffffff"/>
  <rect x="17" y="9" width="1" height="1" fill="#ffffff"/>
  <rect x="6" y="10" width="1" height="1" fill="#0059FF"/>
  <rect x="13" y="10" width="1" height="1" fill="#0059FF"/>
  <rect x="7" y="10" width="1" height="1" fill="#0059FF"/>
  <rect x="8" y="10" width="1" height="1" fill="#0059FF"/>
  <rect x="11" y="10" width="1" height="1" fill="#0059FF"/>
  <rect x="10" y="10" width="1" height="1" fill="#0059FF"/>
  <rect x="9" y="10" width="1" height="1" fill="#0059FF"/>
  <rect x="12" y="10" width="1" height="1" fill="#0059FF"/>
  <rect x="14" y="10" width="1" height="1" fill="#0059FF"/>
  <rect x="15" y="10" width="1" height="1" fill="#0059FF"/>
  <rect x="16" y="10" width="1" height="1" fill="#0059FF"/>
  <rect x="17" y="10" width="1" height="1" fill="#0059FF"/>
  <rect x="18" y="10" width="1" height="1" fill="#0059FF"/>
  <rect x="19" y="10" width="1" height="1" fill="#0059FF"/>
</svg>