<svg width="24" height="24" viewBox="0 0 24 24" fill="none" xmlns="http://www.w3.org/2000/svg">
  <rect x="6" y="5" width="1" height="1" fill="#000000"/>
  <rect x="17" y="5" width="1" height="1" fill="#000000"/>
  <rect x="6" y="6" width="1" height="1" fill="#787878"/>
  <rect x="5" y="6" width="1" height="1" fill="#000000"/>
  <rect x="5" y="8" width="1" height="1" fill="#000000"/>
  <rect x="5" y="10" width="1" height="1" fill="#000000"/>
  <rect x="7" y="6" width="1" height="1" fill="#000000"/>
  <rect x="16" y="6" width="1" height="1" fill="#000000"/>
  <rect x="17" y="6" width="1" height="1" fill="#787878"/>
  <rect x="18" y="6" width="1" height="1" fill="#000000"/>
  <rect x="6" y="7" width="1" height="1" fill="#787878"/>
  <rect x="5" y="7" width="1" height="1" fill="#000000"/>
  <rect x="5" y="9" width="1" height="1" fill="#000000"/>
  <rect x="7" y="7" width="1" height="1" fill="#787878"/>
  <rect x="8" y="7" width="1" height="1" fill="#000000"/>
  <rect x="9" y="8" width="1" height="1" fill="#000000"/>
  <rect x="15" y="7" width="1" height="1" fill="#000000"/>
  <rect x="16" y="7" width="1" height="1" fill="#787878"/>
  <rect x="17" y="7" width="1" height="1" fill="#787878"/>
  <rect x="18" y="7" width="1" height="1" fill="#000000"/>
  <rect x="18" y="9" width="1" height="1" fill="#000000"/>
  <rect x="6" y="10" width="1" height="1" fill="#000000"/>
  <rect x="6" y="8" width="1" height="1" fill="#787878"/>
  <rect x="6" y="9" width="1" height="1" fill="#787878"/>
  <rect x="5" y="11" width="1" height="1" fill="#000000"/>
  <rect x="7" y="9" width="1" height="1" fill="#000000"/>
  <rect x="7" y="8" width="1" height="1" fill="#787878"/>
  <rect x="8" y="9" width="1" height="1" fill="#000000"/>
  <rect x="8" y="8" width="1" height="1" fill="#787878"/>
  <rect x="9" y="9" width="1" height="1" fill="#000000"/>
  <rect x="10" y="9" width="1" height="1" fill="#000000"/>
  <rect x="11" y="9" width="1" height="1" fill="#000000"/>
  <rect x="12" y="9" width="1" height="1" fill="#000000"/>
  <rect x="13" y="9" width="1" height="1" fill="#000000"/>
  <rect x="14" y="9" width="1" height="1" fill="#000000"/>
  <rect x="14" y="8" width="1" height="1" fill="#000000"/>
  <rect x="16" y="9" width="1" height="1" fill="#000000"/>
  <rect x="16" y="8" width="1" height="1" fill="#787878"/>
  <rect x="15" y="9" width="1" height="1" fill="#000000"/>
  <rect x="15" y="8" width="1" height="1" fill="#787878"/>
  <rect x="17" y="10" width="1" height="1" fill="#000000"/>
  <rect x="17" y="8" width="1" height="1" fill="#787878"/>
  <rect x="17" y="9" width="1" height="1" fill="#787878"/>
  <rect x="18" y="11" width="1" height="1" fill="#000000"/>
  <rect x="18" y="8" width="1" height="1" fill="#000000"/>
  <rect x="18" y="10" width="1" height="1" fill="#000000"/>
</svg>