<svg width="24" height="24" viewBox="0 0 24 24" fill="none" xmlns="http://www.w3.org/2000/svg">
  <rect x="11" y="6" width="1" height="1" fill="#484848"/>
  <rect x="12" y="5" width="1" height="1" fill="#484848"/>
  <rect x="12" y="4" width="1" height="1" fill="#4E2711"/>
  <rect x="12" y="3" width="1" height="1" fill="#4E2711"/>
  <rect x="13" y="3" width="1" height="1" fill="#553421"/>
  <rect x="13" y="4" width="1" height="1" fill="#4E2711"/>
  <rect x="14" y="4" width="1" height="1" fill="#553421"/>
  <rect x="12" y="6" width="1" height="1" fill="#A9A9A9"/>
  <rect x="14" y="6" width="1" height="1" fill="#4E2711"/>
  <rect x="15" y="6" width="1" height="1" fill="#4E2711"/>
  <rect x="16" y="6" width="1" height="1" fill="#553421"/>
  <rect x="15" y="7" width="1" height="1" fill="#4E2711"/>
  <rect x="16" y="7" width="1" height="1" fill="#4E2711"/>
  <rect x="14" y="5" width="1" height="1" fill="#4E2711"/>
  <rect x="15" y="5" width="1" height="1" fill="#553421"/>
  <rect x="15" y="4" width="1" height="1" fill="#000000"/>
  <rect x="15" y="3" width="1" height="1" fill="#212121"/>
  <rect x="16" y="4" width="1" height="1" fill="#212121"/>
  <rect x="16" y="3" width="1" height="1" fill="#000000"/>
  <rect x="16" y="2" width="1" height="1" fill="#212121"/>
  <rect x="17" y="3" width="1" height="1" fill="#212121"/>
  <rect x="17" y="2" width="1" height="1" fill="#000000"/>
  <rect x="13" y="6" width="1" height="1" fill="#A9A9A9"/>
  <rect x="13" y="5" width="1" height="1" fill="#4E2711"/>
  <rect x="10" y="7" width="1" height="1" fill="#484848"/>
  <rect x="11" y="7" width="1" height="1" fill="#A9A9A9"/>
  <rect x="12" y="7" width="1" height="1" fill="#A9A9A9"/>
  <rect x="13" y="7" width="1" height="1" fill="#A9A9A9"/>
  <rect x="9" y="9" width="1" height="1" fill="#00FFFF"/>
  <rect x="12" y="10" width="1" height="1" fill="#00FFFF"/>
  <rect x="9" y="8" width="1" height="1" fill="#484848"/>
  <rect x="10" y="9" width="1" height="1" fill="#00FFFF"/>
  <rect x="10" y="8" width="1" height="1" fill="#A9A9A9"/>
  <rect x="11" y="9" width="1" height="1" fill="#00FFFF"/>
  <rect x="12" y="9" width="1" height="1" fill="#00FFFF"/>
  <rect x="13" y="9" width="1" height="1" fill="#00FFFF"/>
  <rect x="11" y="8" width="1" height="1" fill="#A9A9A9"/>
  <rect x="12" y="8" width="1" height="1" fill="#A9A9A9"/>
  <rect x="13" y="8" width="1" height="1" fill="#D3D3D3"/>
  <rect x="14" y="7" width="1" height="1" fill="#D3D3D3"/>
</svg>