<svg width="24" height="24" viewBox="0 0 24 24" fill="none" xmlns="http://www.w3.org/2000/svg">
  <rect x="8" y="8" width="1" height="1" fill="#F16C8D"/>
  <rect x="9" y="8" width="1" height="1" fill="#F16C8D"/>
  <rect x="10" y="8" width="1" height="1" fill="#F16C8D"/>
  <rect x="11" y="8" width="1" height="1" fill="#F16C8D"/>
  <rect x="12" y="8" width="1" height="1" fill="#F16C8D"/>
  <rect x="13" y="8" width="1" height="1" fill="#F16C8D"/>
  <rect x="14" y="8" width="1" height="1" fill="#F16C8D"/>
  <rect x="15" y="8" width="1" height="1" fill="#F16C8D"/>
  <rect x="16" y="8" width="1" height="1" fill="#F16C8D"/>
  <rect x="7" y="9" width="1" height="1" fill="#F16C8D"/>
  <rect x="7" y="8" width="1" height="1" fill="#F16C8D"/>
  <rect x="6" y="9" width="1" height="1" fill="#F16C8D"/>
  <rect x="8" y="9" width="1" height="1" fill="#F16C8D"/>
  <rect x="9" y="9" width="1" height="1" fill="#F16C8D"/>
  <rect x="10" y="9" width="1" height="1" fill="#F16C8D"/>
  <rect x="11" y="9" width="1" height="1" fill="#F16C8D"/>
  <rect x="12" y="9" width="1" height="1" fill="#F16C8D"/>
  <rect x="13" y="9" width="1" height="1" fill="#F16C8D"/>
  <rect x="14" y="9" width="1" height="1" fill="#F16C8D"/>
  <rect x="15" y="9" width="1" height="1" fill="#F16C8D"/>
  <rect x="16" y="9" width="1" height="1" fill="#F16C8D"/>
  <rect x="17" y="9" width="1" height="1" fill="#F16C8D"/>
  <rect x="8" y="10" width="1" height="1" fill="#F16C8D"/>
  <rect x="9" y="10" width="1" height="1" fill="#F16C8D"/>
  <rect x="10" y="10" width="1" height="1" fill="#F16C8D"/>
  <rect x="11" y="10" width="1" height="1" fill="#F16C8D"/>
  <rect x="12" y="10" width="1" height="1" fill="#F16C8D"/>
  <rect x="13" y="10" width="1" height="1" fill="#F16C8D"/>
  <rect x="14" y="10" width="1" height="1" fill="#F16C8D"/>
  <rect x="15" y="10" width="1" height="1" fill="#F16C8D"/>
  <rect x="16" y="10" width="1" height="1" fill="#F16C8D"/>
  <rect x="17" y="10" width="1" height="1" fill="#F16C8D"/>
  <rect x="18" y="10" width="1" height="1" fill="#F16C8D"/>
  <rect x="17" y="11" width="1" height="1" fill="#F16C8D"/>
  <rect x="18" y="11" width="1" height="1" fill="#F16C8D"/>
  <rect x="18" y="12" width="1" height="1" fill="#F16C8D"/>
  <rect x="19" y="12" width="1" height="1" fill="#F16C8D"/>
  <rect x="19" y="11" width="1" height="1" fill="#F16C8D"/>
  <rect x="19" y="13" width="1" height="1" fill="#F16C8D"/>
  <rect x="20" y="13" width="1" height="1" fill="#F16C8D"/>
</svg>