<svg width="24" height="24" viewBox="0 0 24 24" fill="none" xmlns="http://www.w3.org/2000/svg">
  <rect x="15" y="6" width="1" height="1" fill="#ffffff"/>
  <rect x="14" y="6" width="1" height="1" fill="#FF85C3"/>
  <rect x="17" y="4" width="1" height="1" fill="#ffffff"/>
  <rect x="8" y="4" width="1" height="1" fill="#ffffff"/>
  <rect x="7" y="3" width="1" height="1" fill="#FF85C3"/>
  <rect x="8" y="2" width="1" height="1" fill="#ffffff"/>
  <rect x="7" y="2" width="1" height="1" fill="#ffffff"/>
  <rect x="7" y="4" width="1" height="1" fill="#ffffff"/>
  <rect x="6" y="3" width="1" height="1" fill="#ffffff"/>
  <rect x="9" y="7" width="1" height="1" fill="#FF85C3"/>
  <rect x="8" y="7" width="1" height="1" fill="#ffffff"/>
  <rect x="9" y="4" width="1" height="1" fill="#FF85C3"/>
  <rect x="8" y="3" width="1" height="1" fill="#FF85C3"/>
  <rect x="9" y="8" width="1" height="1" fill="#FF85C3"/>
  <rect x="10" y="7" width="1" height="1" fill="#ffffff"/>
  <rect x="10" y="6" width="1" height="1" fill="#ffffff"/>
  <rect x="10" y="5" width="1" height="1" fill="#ffffff"/>
  <rect x="10" y="4" width="1" height="1" fill="#ffffff"/>
  <rect x="9" y="3" width="1" height="1" fill="#ffffff"/>
  <rect x="14" y="7" width="1" height="1" fill="#FF85C3"/>
  <rect x="15" y="7" width="1" height="1" fill="#ffffff"/>
  <rect x="15" y="4" width="1" height="1" fill="#FF85C3"/>
  <rect x="16" y="4" width="1" height="1" fill="#FF85C3"/>
  <rect x="8" y="6" width="1" height="1" fill="#ffffff"/>
  <rect x="8" y="8" width="1" height="1" fill="#ffffff"/>
  <rect x="9" y="6" width="1" height="1" fill="#FF85C3"/>
  <rect x="8" y="5" width="1" height="1" fill="#ffffff"/>
  <rect x="9" y="5" width="1" height="1" fill="#FF85C3"/>
  <rect x="10" y="8" width="1" height="1" fill="#ffffff"/>
  <rect x="13" y="7" width="1" height="1" fill="#ffffff"/>
  <rect x="13" y="8" width="1" height="1" fill="#ffffff"/>
  <rect x="13" y="6" width="1" height="1" fill="#ffffff"/>
  <rect x="14" y="5" width="1" height="1" fill="#ffffff"/>
  <rect x="14" y="4" width="1" height="1" fill="#ffffff"/>
  <rect x="15" y="3" width="1" height="1" fill="#ffffff"/>
  <rect x="16" y="3" width="1" height="1" fill="#ffffff"/>
  <rect x="15" y="8" width="1" height="1" fill="#ffffff"/>
  <rect x="16" y="5" width="1" height="1" fill="#ffffff"/>
  <rect x="15" y="5" width="1" height="1" fill="#FF85C3"/>
  <rect x="14" y="8" width="1" height="1" fill="#FF85C3"/>
</svg>