<svg width="24" height="24" viewBox="0 0 24 24" fill="none" xmlns="http://www.w3.org/2000/svg">
  <rect x="10" y="9" width="1" height="1" fill="#7D511D"/>
  <rect x="11" y="9" width="1" height="1" fill="#7D511D"/>
  <rect x="11" y="8" width="1" height="1" fill="#7D511D"/>
  <rect x="11" y="7" width="1" height="1" fill="#000000"/>
  <rect x="11" y="6" width="1" height="1" fill="#000000"/>
  <rect x="12" y="5" width="1" height="1" fill="#000000"/>
  <rect x="11" y="4" width="1" height="1" fill="#000000"/>
  <rect x="10" y="5" width="1" height="1" fill="#000000"/>
  <rect x="13" y="6" width="1" height="1" fill="#000000"/>
  <rect x="13" y="4" width="1" height="1" fill="#000000"/>
  <rect x="14" y="3" width="1" height="1" fill="#000000"/>
  <rect x="14" y="4" width="1" height="1" fill="#409134"/>
  <rect x="13" y="5" width="1" height="1" fill="#1D5B10"/>
  <rect x="15" y="3" width="1" height="1" fill="#000000"/>
  <rect x="15" y="4" width="1" height="1" fill="#409134"/>
  <rect x="14" y="5" width="1" height="1" fill="#1D5B10"/>
  <rect x="16" y="5" width="1" height="1" fill="#409134"/>
  <rect x="14" y="6" width="1" height="1" fill="#409134"/>
  <rect x="16" y="3" width="1" height="1" fill="#000000"/>
  <rect x="16" y="4" width="1" height="1" fill="#409134"/>
  <rect x="15" y="5" width="1" height="1" fill="#1D5B10"/>
  <rect x="17" y="5" width="1" height="1" fill="#409134"/>
  <rect x="15" y="6" width="1" height="1" fill="#409134"/>
  <rect x="17" y="4" width="1" height="1" fill="#000000"/>
  <rect x="18" y="5" width="1" height="1" fill="#000000"/>
  <rect x="17" y="6" width="1" height="1" fill="#000000"/>
  <rect x="16" y="6" width="1" height="1" fill="#000000"/>
  <rect x="15" y="7" width="1" height="1" fill="#000000"/>
  <rect x="14" y="7" width="1" height="1" fill="#000000"/>
  <rect x="9" y="6" width="1" height="1" fill="#000000"/>
  <rect x="9" y="5" width="1" height="1" fill="#409134"/>
  <rect x="8" y="4" width="1" height="1" fill="#1D5B10"/>
  <rect x="10" y="4" width="1" height="1" fill="#1D5B10"/>
  <rect x="7" y="4" width="1" height="1" fill="#409134"/>
  <rect x="8" y="3" width="1" height="1" fill="#409134"/>
  <rect x="9" y="4" width="1" height="1" fill="#1D5B10"/>
  <rect x="8" y="6" width="1" height="1" fill="#000000"/>
  <rect x="8" y="5" width="1" height="1" fill="#409134"/>
  <rect x="6" y="4" width="1" height="1" fill="#409134"/>
  <rect x="7" y="3" width="1" height="1" fill="#409134"/>
  <rect x="7" y="5" width="1" height="1" fill="#000000"/>
  <rect x="6" y="5" width="1" height="1" fill="#000000"/>
  <rect x="5" y="4" width="1" height="1" fill="#000000"/>
  <rect x="6" y="3" width="1" height="1" fill="#000000"/>
  <rect x="7" y="2" width="1" height="1" fill="#000000"/>
  <rect x="8" y="2" width="1" height="1" fill="#000000"/>
  <rect x="9" y="3" width="1" height="1" fill="#409134"/>
  <rect x="9" y="2" width="1" height="1" fill="#000000"/>
  <rect x="10" y="3" width="1" height="1" fill="#000000"/>
  <rect x="12" y="9" width="1" height="1" fill="#7D511D"/>
  <rect x="12" y="8" width="1" height="1" fill="#7D511D"/>
  <rect x="13" y="9" width="1" height="1" fill="#7D511D"/>
</svg>