<svg width="24" height="24" viewBox="0 0 24 24" fill="none" xmlns="http://www.w3.org/2000/svg">
  <rect x="21" y="15" width="1" height="1" fill="#A4A4A4"/>
  <rect x="21" y="14" width="1" height="1" fill="#A4A4A4"/>
  <rect x="20" y="17" width="1" height="1" fill="#A4A4A4"/>
  <rect x="19" y="17" width="1" height="1" fill="#A4A4A4"/>
  <rect x="20" y="16" width="1" height="1" fill="#A4A4A4"/>
  <rect x="12" y="17" width="1" height="1" fill="#000000"/>
  <rect x="13" y="17" width="1" height="1" fill="#000000"/>
  <rect x="14" y="17" width="1" height="1" fill="#341400"/>
  <rect x="15" y="18" width="1" height="1" fill="#341400"/>
  <rect x="15" y="17" width="1" height="1" fill="#341400"/>
  <rect x="16" y="18" width="1" height="1" fill="#341400"/>
  <rect x="19" y="18" width="1" height="1" fill="#341400"/>
  <rect x="18" y="18" width="1" height="1" fill="#341400"/>
  <rect x="20" y="18" width="1" height="1" fill="#341400"/>
  <rect x="18" y="19" width="1" height="1" fill="#341400"/>
  <rect x="17" y="19" width="1" height="1" fill="#341400"/>
  <rect x="16" y="19" width="1" height="1" fill="#341400"/>
  <rect x="18" y="20" width="1" height="1" fill="#341400"/>
  <rect x="17" y="20" width="1" height="1" fill="#341400"/>
  <rect x="19" y="19" width="1" height="1" fill="#341400"/>
  <rect x="19" y="20" width="1" height="1" fill="#341400"/>
  <rect x="20" y="19" width="1" height="1" fill="#341400"/>
</svg>